<svg xmlns="http://www.w3.org/2000/svg" xmlns:osb="http://www.openswatchbook.org/uri/2009/osb" xmlns:svg="http://www.w3.org/2000/svg" xmlns:xlink="http://www.w3.org/1999/xlink" id="svg2" width="480" height="600" enable-background="new" version="1.1" viewBox="0 0 480 600"><defs id="defs4"><linearGradient id="linearGradient7279"><stop id="stop7281" offset="0" style="stop-color:#fff"/><stop id="stop7283" offset="1" style="stop-color:red;stop-opacity:1"/></linearGradient><linearGradient id="linearGradient4105"><stop id="stop10732" offset="0" style="stop-color:#fff"/><stop id="stop10734" offset="1" style="stop-color:#a3bcdf"/></linearGradient><linearGradient id="linearGradient8147" osb:paint="solid"><stop style="stop-color:#ffd80c;stop-opacity:1" id="stop8149" offset="0"/></linearGradient><filter style="color-interpolation-filters:sRGB" id="filter5144"><feGaussianBlur id="feGaussianBlur5146" in="SourceAlpha" result="result0" stdDeviation="4"/><feOffset id="feOffset5148" dx="5" dy="5" result="result4"/><feComposite id="feComposite5150" in="SourceGraphic" in2="result4" operator="xor" result="result3"/></filter><linearGradient id="linearGradient10736"><stop style="stop-color:#fff" id="stop4107" offset="0"/><stop style="stop-color:#d3ebf2;stop-opacity:1" id="stop4109" offset="1"/></linearGradient></defs><metadata id="metadata7"/><g id="layer13"><g id="g5929" transform="matrix(0.76196743,0,0,0.85685411,246.45133,38.482319)"><ellipse id="path5049" cx="-172.325" cy="251.279" rx="66.488" ry="44.777" style="fill:#d45500"/><path id="path5065" d="m -152.74865,245.85432 c 1.53915,-7.04868 4.00635,-13.91204 6.86972,-20.52901 2.26342,-4.58628 5.98043,-8.17623 9.80302,-11.47987 2.77651,-2.97882 6.47274,-4.77145 9.62461,-7.28444 14.92072,-7.55065 30.014059,-22.05041 47.846499,-24.6865 3.55284,-0.73725 7.26635,-0.13036 10.82868,-0.59024 1.531234,-0.19767 2.990195,-0.77063 4.487769,-1.14615 4.826375,-1.11967 9.790617,-1.318 14.722508,-1.47499 5.330744,-0.34545 10.744657,0.43763 15.99678,-0.61084 6.266276,-1.3114 12.67685,-1.64572 19.055855,-1.916 1.006944,-0.20756 2.013889,-0.41512 3.020833,-0.62268 0,0 -32.090815,24.0339 -32.090815,24.0339 l 0,0 c -1.061162,0.0944 -2.122325,0.18886 -3.183487,0.28329 -6.38146,0.40441 -12.710012,1.17657 -19.018242,2.2198 -5.393141,0.25847 -10.797231,0.0866 -16.190191,0.39598 -4.84462,0.30916 -9.65957,0.86242 -14.38599,2.01434 -5.066039,0.84733 -10.262169,0.51184 -15.291009,1.68538 -14.81362,3.83702 -39.492,23.65413 21.698859,-14.42047 -3.35204,2.18247 -6.2908,4.91847 -9.88138,6.75987 -3.312429,3.58317 -7.498729,6.27254 -10.568169,10.13773 -2.87274,6.28944 -5.6771,12.70112 -7.22054,19.46524 0,0 -36.12531,17.76566 -36.12531,17.76566 z" style="fill:red"/><use id="use5073" width="100%" height="100%" x="0" y="0" transform="matrix(-1,0,0,1,-339.41957,-0.1060075)" xlink:href="#path5065"/><path id="path5095" d="m -136.2714,263.29387 c -55.26271,7.23867 -53.0411,-41.2047 -55.54042,7.23867 -2.49931,48.44336 55.54042,-7.23867 55.54042,-7.23867 z" style="fill:#f0f;fill-rule:nonzero;stroke:#b50000;stroke-width:.40984273px;stroke-linecap:butt;stroke-linejoin:miter;stroke-opacity:1"/><g id="g5913"><path style="fill:#ff0;fill-rule:evenodd;stroke:#f1fc00;stroke-width:1px;stroke-linecap:butt;stroke-linejoin:miter;stroke-opacity:1" id="path5901" d="m -266.25196,248.83525 c 35.02053,8.6352 35.02053,8.6352 35.02053,8.6352 z"/><use id="use5903" width="100%" height="100%" x="0" y="0" transform="matrix(0.89549284,-0.45467961,0.49610187,1.7431112,-153.18079,-290.53702)" xlink:href="#path5901"/><use id="use5911" width="100%" height="100%" x="0" y="0" transform="matrix(0.86902426,-0.49476947,0.49476947,0.86902426,-156.56683,-69.32433)" xlink:href="#path5901"/></g><use id="use5918" width="100%" height="100%" x="0" y="0" transform="matrix(-1,0,0,1,-346.98809,1.3568906)" xlink:href="#g5913"/><ellipse id="path5921" cx="-205.569" cy="226.177" rx="4.749" ry="4.071" style="fill:#ff0;fill-rule:nonzero;stroke:#f1fc00;stroke-opacity:1"/><use id="use5927" width="100%" height="100%" x="0" y="0" transform="translate(71.236759,0.67844552)" xlink:href="#path5921"/></g></g></svg>