<svg xmlns="http://www.w3.org/2000/svg" xmlns:svg="http://www.w3.org/2000/svg" id="Layer_2" width="864" height="864" x="0" y="0" enable-background="new 0 0 864 864" version="1.1" viewBox="0 0 864 864" xml:space="preserve"><metadata id="metadata25182"/><ellipse id="circle25168" cx="92.059" cy="303.029" rx="51.461" ry="56.952" style="clip-rule:evenodd;fill-rule:evenodd"/><g id="g25170" transform="matrix(0.14787406,0,0,0.16365418,25.933335,229.77085)"><path id="path25172" d="m 573.713,473.543 c -11.995,58.904 -64.089,103.231 -126.535,103.231 -62.447,0 -114.54,-44.327 -126.535,-103.231 l -179.474,0 c 13.155,157.485 145.125,281.202 306.008,281.202 160.884,0 292.855,-123.717 306.011,-281.202 l -179.475,0 z" style="clip-rule:evenodd;fill:#fff;fill-rule:evenodd"/><path id="path25174" d="m 447.178,357.277 c -49.904,0 -90.36,40.456 -90.36,90.362 0,49.904 40.456,90.361 90.36,90.361 49.906,0 90.361,-40.457 90.361,-90.361 0,-49.906 -40.455,-90.362 -90.361,-90.362 z m 10e-4,134.941 c -24.621,0 -44.579,-19.958 -44.579,-44.578 0,-24.621 19.958,-44.579 44.579,-44.579 24.62,0 44.578,19.958 44.578,44.579 0,24.62 -19.958,44.578 -44.578,44.578 z" style="clip-rule:evenodd;fill:#fff;fill-rule:evenodd"/></g><path id="path25176" d="m 92.059359,281.89536 c 9.234151,0 16.937501,7.2543 18.711251,16.89435 l 26.5397,0 c -1.94528,-25.77308 -21.46052,-46.02004 -45.251092,-46.02004 -23.790279,0 -43.305217,20.24696 -45.250647,46.02004 l 26.539544,0 c 1.77375,-9.64005 9.476807,-16.89435 18.711244,-16.89435 z" style="clip-rule:evenodd;fill:#ed1c24;fill-rule:evenodd"/></svg>