<svg xmlns="http://www.w3.org/2000/svg" xmlns:svg="http://www.w3.org/2000/svg" id="svg3194" width="744" height="1052" preserveAspectRatio="xMidYMid meet" version="1.1" viewBox="5.172 18.692 656.342 928.053"><rect style="fill:none;stroke:none" id="svgEditorBackground" width="656.342" height="682.501" x="5.172" y="36.309"/><metadata id="metadata3199"/><g id="layer1"><path id="path3202" d="m 51.428571,232.36218 -15.526603,0.0825 -15.339951,2.40169 -4.876428,-14.74119 -7.0244446,-13.847 12.5128046,-9.19304 10.998606,-10.9596 12.609767,9.05958 13.821957,7.0736 -4.719541,14.79216 z" transform="matrix(1,0,0,0.76443453,0,6.0327377)" style="fill:red"/><path id="path3232" d="m 51.428572,440.9336 -15.331322,2.45617 -14.792165,4.71954 -7.073593,-13.82196 -9.0595798,-12.60977 10.9596018,-10.9986 9.193036,-12.51281 13.846999,7.02445 14.741189,4.87642 -2.401685,15.33996 z" transform="matrix(1,0,0,0.76443453,0,-17.153912)" style="fill:red"/><text id="text3330" x="55.182" y="91.15" transform="scale(0.97210236,1.0286983)" xml:space="preserve" style="font-style:normal;font-weight:400;font-size:46.0001297px;line-height:125%;font-family:Sans;letter-spacing:0;word-spacing:0;fill:#000;fill-opacity:1;stroke:none"><tspan id="tspan3332" x="55.182" y="91.15"><tspan id="tspan3334" x="55.182" y="91.15" style="font-size:64.40018463px;fill:red">Flappy Svg Game</tspan></tspan></text><text id="text3320" x="69.1" y="170.702" transform="scale(0.9240781,1.0821596)" xml:space="preserve" style="font-style:normal;font-weight:400;font-size:40.08649445px;line-height:125%;font-family:Sans;letter-spacing:0;word-spacing:0;fill:#000;fill-opacity:1;stroke:none"><tspan style="fill:#000" id="tspan3322" x="69.1" y="170.702"><tspan id="tspan3324" x="69.1" y="170.702" style="fill:#000">Tap The Screen To Move The </tspan></tspan><tspan style="fill:#000" id="tspan3326" x="69.1" y="220.81"><tspan id="tspan3328" x="69.1" style="fill:#000">Flappy Object Up</tspan></tspan></text><text id="text3336" x="69.777" y="296.064" transform="scale(0.94207634,1.0614851)" xml:space="preserve" style="font-style:normal;font-weight:400;font-size:39.01171494px;line-height:125%;font-family:Sans;letter-spacing:0;word-spacing:0;fill:#000;fill-opacity:1;stroke:none"><tspan style="fill:#000" id="tspan3338" x="69.777" y="296.064"><tspan id="tspan3340" x="69.777" y="296.064" style="fill:#000">Avoid colliding with obstacles </tspan></tspan><tspan style="fill:#000" id="tspan3342" x="69.777" y="344.829"><tspan id="tspan3344" x="69.777" dx="0 0 0 0 0 0 0 0 0 0 0 0 0 0 0 0 0 0 0 0 0 0 0 0 0 0 0 0 12.42" style="fill:#000">and hitting the floor</tspan></tspan></text><text id="text3348" x="86.386" y="397.948" transform="scale(0.90724845,1.1022339)" xml:space="preserve" style="font-style:normal;font-weight:400;font-size:40.24990082px;line-height:125%;font-family:Sans;letter-spacing:0;word-spacing:0;fill:#000;fill-opacity:1;stroke:none"><tspan style="fill:#000" id="tspan3350" x="86.386" y="397.948"><tspan id="tspan3352" x="86.386" y="397.948" style="fill:#000">Score Will Be Based on how </tspan></tspan><tspan style="fill:#000" id="tspan3354" x="86.386" y="448.261"><tspan id="tspan3356" x="86.386" dx="0 0 0 0 0 0 0 0 0 0 0 0 0 0 0 0 0 0 0 0 0 0 0 0 20.99" style="fill:#000">many obstacles You cross</tspan></tspan></text><path id="path3272" d="m 54.285714,895.21933 -15.331323,2.45617 -14.792164,4.71954 -7.073592,-13.82196 -9.0595813,-12.60976 10.9596033,-10.99861 9.193035,-12.5128 13.846998,7.02444 14.74119,4.87643 -2.401687,15.33995 z" transform="matrix(1,0,0,0.76443453,-2.1838861,-109.90572)" style="fill:red"/><text id="text3360" x="79.961" y="541.391" transform="scale(0.94905466,1.0536801)" xml:space="preserve" style="font-style:normal;font-weight:400;font-size:38.23707199px;line-height:125%;font-family:Sans;letter-spacing:0;word-spacing:0;fill:#000;fill-opacity:1;stroke:none"><tspan style="fill:#000" id="tspan3362" x="79.961" y="541.391"><tspan id="tspan3364" x="79.961" y="541.391" style="fill:#000">Hitting the obstacles = </tspan></tspan><tspan style="fill:#000" id="tspan3366" x="79.961" y="589.188"><tspan id="tspan3368" x="79.961" style="fill:#000"> GAME OVER!</tspan></tspan></text><flowRoot style="fill:#000;stroke:none;stroke-opacity:1;stroke-width:1px;stroke-linejoin:miter;stroke-linecap:butt;fill-opacity:1;font-family:sans-serif;font-style:normal;font-weight:400;font-size:10px;line-height:125%;letter-spacing:0;word-spacing:0" id="flowRoot3456" xml:space="preserve"><flowRegion id="flowRegion3458"><rect id="rect3460" width="711.429" height="208.571" x="11.429" y="120.571"/></flowRegion><flowPara id="flowPara3462"/></flowRoot><path id="path3272-3" d="m 44.701768,997.30777 -15.331323,2.45617 -14.792164,4.71956 -7.0735918,-13.82198 -9.0595817,-12.60976 10.9596029,-10.99861 9.1930346,-12.5128 13.846999,7.02444 14.74119,4.87643 -2.401688,15.33995 z" transform="matrix(1,0,0,0.76443453,17.643602,-59.500639)" style="fill:red"/><flowRoot style="fill:#000;stroke:none;stroke-opacity:1;stroke-width:1px;stroke-linejoin:miter;stroke-linecap:butt;fill-opacity:1;font-family:sans-serif;font-style:normal;font-weight:400;font-size:10px;line-height:125%;letter-spacing:0;word-spacing:0" id="flowRoot3517" xml:space="preserve"><flowRegion id="flowRegion3519"><rect id="rect3521" width="665.714" height="134.286" x="74.286" y="1072"/></flowRegion><flowPara id="flowPara3523"/></flowRoot><flowRoot style="fill:#000;stroke:none;stroke-opacity:1;stroke-width:1px;stroke-linejoin:miter;stroke-linecap:butt;fill-opacity:1;font-family:sans-serif;font-style:normal;font-weight:400;font-size:10px;line-height:125%;letter-spacing:0;word-spacing:0" id="flowRoot3529" xml:space="preserve"><flowRegion id="flowRegion3531"><rect id="rect3533" width="637.143" height="142.857" x="68.571" y="1069.143"/></flowRegion><flowPara id="flowPara3535"/></flowRoot><text id="text3537" x="403.398" y="916.875" transform="scale(1.1437467,0.87431947)" xml:space="preserve" style="font-style:normal;font-weight:400;font-size:7.7130723px;line-height:125%;font-family:sans-serif;letter-spacing:0;word-spacing:0;fill:#000;fill-opacity:1;stroke:none;stroke-width:1px;stroke-linecap:butt;stroke-linejoin:miter;stroke-opacity:1"><tspan id="tspan3539" x="403.398" y="916.875">K</tspan></text><text id="text3348-6" x="108.758" y="632.398" transform="scale(0.90724845,1.1022339)" xml:space="preserve" style="font-style:normal;font-weight:400;font-size:40.24990082px;line-height:125%;font-family:Sans;letter-spacing:0;word-spacing:0;fill:#000;fill-opacity:1;stroke:none"><tspan style="fill:#000" id="tspan3354-3" x="108.758" y="632.398">KeyBoard Shortcuts</tspan><tspan id="tspan3597" x="108.758" y="673.343" style="font-size:30.8522892px;fill:#000">Spacebar-Changes characters</tspan><tspan id="tspan3599" x="108.758" y="711.908" style="font-size:30.8522892px;fill:#000">b -Changes background</tspan><tspan id="tspan3601" x="108.758" y="750.474" style="font-size:30.8522892px;fill:#000">Enter -Starts the game</tspan><tspan id="tspan3603" x="108.758" y="789.039" style="font-size:30.8522892px;fill:#000">r -Restarts the game</tspan></text><path id="path3272-3-6" d="m 44.701768,997.30777 -15.331323,2.45617 -14.792164,4.71956 -7.0735918,-13.82198 -9.0595817,-12.60976 10.9596029,-10.99861 9.1930346,-12.5128 13.846999,7.02444 14.74119,4.87643 -2.401688,15.33995 z" transform="matrix(0.99999999,0,0,0.76443453,7.5615441,-316.21246)" style="fill:red"/></g></svg>